<?xml version="1.0" encoding="utf-8"?><svg version="1.1" id="Layer_1" xmlns="http://www.w3.org/2000/svg" xmlns:xlink="http://www.w3.org/1999/xlink" x="0px" y="0px" width="111.206px" height="122.88px" viewBox="0 0 111.206 122.88" enable-background="new 0 0 111.206 122.88" xml:space="preserve"><g><path fill-rule="evenodd" clip-rule="evenodd" d="M1.062,51.421h110.145L56.194,0L1.062,51.421L1.062,51.421z M30.093,72.771H53.41 v4.507H30.093V72.771L30.093,72.771z M55.231,111.471l21.907-21.908l33.317,33.317H66.64h-22.82H0.002l33.32-33.317L55.231,111.471 L55.231,111.471z M0,114.798l28.605-28.605L0,57.587V114.798L0,114.798z M111.142,117.535L79.8,86.192l31.342-31.342V117.535 L111.142,117.535z M58.854,72.771h23.317v4.507H58.854V72.771L58.854,72.771z M14.809,59.993h23.319v4.506H14.809V59.993 L14.809,59.993z M73.015,59.993h23.319v4.506H73.015V59.993L73.015,59.993z M44.255,59.993h23.317v4.506H44.255V59.993 L44.255,59.993z"/></g></svg>